<?xml version="1.0" standalone="no"?>
<!DOCTYPE svg PUBLIC "-//W3C//DTD SVG 20010904//EN"
 "http://www.w3.org/TR/2001/REC-SVG-20010904/DTD/svg10.dtd">
<svg version="1.0" xmlns="http://www.w3.org/2000/svg"
 width="1920.000000pt" height="1920.000000pt" viewBox="0 0 1920.000000 1920.000000"
 preserveAspectRatio="xMidYMid meet">
<metadata>
Created by potrace 1.14, written by Peter Selinger 2001-2017
</metadata>
<g transform="translate(0.000000,1920.000000) scale(0.100000,-0.100000)"
fill="#000000" stroke="none">
<path d="M10915 18314 c-1335 -47 -2732 -235 -4090 -549 -126 -29 -266 -56
-310 -60 -323 -25 -621 -149 -905 -375 -105 -84 -323 -306 -411 -420 -737
-949 -1143 -2540 -1070 -4190 22 -499 74 -910 172 -1367 212 -990 603 -1811
1104 -2318 283 -287 590 -468 907 -536 28 -6 66 -20 85 -31 19 -11 69 -28 111
-37 l77 -16 5 -2745 5 -2745 22 -80 c27 -99 52 -158 99 -232 224 -356 659
-366 888 -20 60 91 108 215 125 324 6 39 11 173 11 297 0 124 2 226 4 226 3 0
220 -106 483 -235 263 -130 535 -264 605 -298 l128 -62 0 -670 c0 -417 4 -694
11 -734 43 -265 213 -488 422 -552 57 -18 86 -21 171 -17 93 4 109 8 177 41
164 82 279 231 341 442 l23 80 3 3289 2 3289 43 -7 c23 -3 321 -9 662 -12 566
-6 1009 1 1513 23 l152 6 2 -2554 3 -2554 23 -80 c86 -307 295 -495 547 -495
253 0 462 190 546 495 20 72 23 110 27 371 l4 292 266 -132 c147 -73 421 -208
609 -301 l342 -168 3 -731 3 -731 28 -90 c55 -174 140 -301 259 -385 91 -64
173 -90 283 -90 110 0 192 26 282 89 39 27 91 76 117 108 57 71 128 214 152
308 18 67 19 230 21 3542 l3 3473 23 5 c12 2 82 16 156 29 73 14 144 32 157
41 13 8 61 27 106 41 104 32 320 137 415 201 121 81 232 173 342 283 700 697
1181 2010 1276 3485 15 233 22 881 10 1017 -3 35 -10 135 -16 223 -74 1120
-414 2236 -903 2960 -230 342 -517 626 -791 787 -98 57 -259 130 -340 152 -33
9 -80 28 -105 41 -106 56 -641 204 -1080 299 -827 179 -1603 281 -2635 347
-158 10 -1497 20 -1700 13z m-2741 -696 c364 -221 666 -592 936 -1152 278
-575 469 -1252 584 -2071 84 -598 102 -1402 46 -2075 -26 -307 -41 -434 -91
-735 -194 -1170 -608 -2138 -1144 -2670 -139 -139 -269 -235 -410 -304 -183
-90 -173 -89 -445 -46 -129 21 -271 43 -315 49 l-80 13 62 31 c143 73 322 211
478 368 704 707 1176 2008 1275 3514 13 203 13 898 0 1098 -47 701 -170 1344
-368 1932 -177 523 -407 969 -686 1330 -100 129 -343 376 -451 457 -81 61
-228 156 -255 165 -18 6 10 12 369 82 336 66 317 63 367 65 33 1 58 -9 128
-51z m7806 -195 c79 -25 155 -53 169 -64 13 -11 49 -26 80 -35 306 -85 492
-195 731 -434 227 -227 399 -475 580 -840 301 -605 514 -1415 584 -2220 81
-917 21 -1805 -174 -2609 -256 -1050 -714 -1857 -1268 -2230 -99 -67 -296
-157 -397 -181 -49 -12 -106 -30 -125 -40 -19 -10 -66 -24 -105 -30 -38 -6
-82 -13 -96 -16 -23 -4 -31 4 -78 81 l-53 86 46 52 c538 607 870 1149 1132
1847 174 466 316 1073 369 1584 129 1240 29 2077 -363 3061 -255 640 -694
1376 -1160 1944 -99 121 -110 117 128 44z m-9185 -68 c448 -78 896 -473 1242
-1095 381 -686 623 -1591 695 -2605 19 -261 16 -925 -5 -1202 -40 -522 -139
-1073 -278 -1537 -311 -1041 -838 -1790 -1425 -2026 -128 -51 -196 -67 -319
-79 -190 -17 -369 12 -543 87 -872 380 -1544 1797 -1684 3552 -18 222 -18
1048 0 1270 22 276 72 651 118 885 32 163 106 471 145 598 21 72 39 135 39
139 0 18 133 374 189 507 287 678 691 1179 1131 1401 76 38 248 97 321 109 88
14 279 12 374 -4z m8053 -9893 l-3 -259 -121 56 c-67 31 -166 76 -220 100 -55
25 -155 70 -224 102 -293 133 -549 248 -597 269 l-53 22 0 173 0 173 73 7
c257 24 893 89 1006 103 l136 17 3 -252 c1 -138 1 -368 0 -511z m-6905 723
c275 -35 698 -82 870 -96 l147 -13 0 -462 0 -461 -317 143 c-175 80 -356 162
-403 184 -47 21 -141 64 -210 95 -69 30 -162 72 -207 93 l-82 37 -1 253 c0
138 3 252 6 252 3 0 92 -11 197 -25z m6297 -1717 c245 -121 482 -238 528 -260
l82 -40 0 -1120 c0 -615 -3 -1117 -7 -1115 -5 3 -150 69 -323 147 -173 78
-371 168 -440 199 -69 32 -198 91 -287 131 l-163 73 0 1144 0 1143 83 -41 c45
-23 282 -141 527 -261z m-5877 -59 l597 -293 0 -1118 0 -1117 -77 36 c-43 19
-271 123 -508 230 -236 107 -476 215 -532 241 l-103 46 0 1139 c0 907 3 1138
13 1134 6 -2 281 -137 610 -298z"/>
<path d="M8377 17146 c-118 -43 -181 -166 -146 -289 13 -48 70 -112 123 -140
56 -29 146 -29 201 0 84 44 126 114 126 206 0 78 -10 106 -61 161 -64 69 -156
92 -243 62z"/>
<path d="M8994 15746 c-139 -65 -176 -240 -76 -356 110 -130 309 -105 383 47
94 194 -111 400 -307 309z"/>
<path d="M9299 13701 c-114 -62 -159 -192 -105 -307 104 -223 438 -149 438 98
0 73 -39 147 -101 192 -38 27 -52 31 -119 34 -61 2 -85 -2 -113 -17z"/>
<path d="M9163 11469 c-59 -11 -96 -32 -137 -81 -59 -69 -72 -157 -35 -238 27
-60 54 -88 114 -116 117 -55 245 -9 307 110 39 75 21 190 -41 260 -41 47 -137
77 -208 65z"/>
<path d="M8335 9476 c-16 -7 -45 -25 -63 -41 -102 -86 -104 -263 -3 -348 111
-93 279 -66 356 57 25 42 30 59 30 116 0 88 -36 150 -115 198 -45 27 -64 32
-115 32 -33 -1 -73 -7 -90 -14z"/>
<path d="M16700 16861 c-106 -33 -171 -115 -171 -219 -1 -94 37 -161 115 -207
183 -107 397 69 335 276 -33 110 -169 183 -279 150z"/>
<path d="M17344 15496 c-92 -43 -143 -134 -131 -236 7 -59 25 -96 68 -138 47
-46 89 -62 161 -62 80 0 139 28 185 88 76 100 60 231 -39 316 -71 61 -157 72
-244 32z"/>
<path d="M17679 13725 c-49 -16 -109 -67 -134 -115 -77 -149 40 -334 210 -334
204 0 306 237 167 386 -67 72 -147 92 -243 63z"/>
<path d="M17545 11791 c-189 -48 -249 -280 -104 -404 150 -129 379 -24 379
173 0 91 -48 169 -130 210 -43 22 -105 31 -145 21z"/>
<path d="M16796 9935 c-84 -30 -148 -121 -149 -214 -1 -169 183 -288 329 -213
148 75 179 257 64 372 -66 67 -155 87 -244 55z"/>
<path d="M2468 14585 c-98 -24 -187 -74 -259 -146 -63 -63 -73 -79 -237 -410
-93 -189 -322 -650 -507 -1024 -1438 -2900 -1426 -2874 -1441 -2945 -39 -185
15 -359 156 -500 125 -126 260 -183 430 -183 162 1 273 46 386 158 69 68 75
77 226 385 86 173 317 639 513 1035 403 813 745 1502 1149 2318 152 307 283
584 292 615 19 65 21 191 4 265 -35 152 -167 312 -314 381 -133 63 -273 81
-398 51z"/>
<path d="M3261 11790 c-192 -51 -347 -200 -400 -385 -6 -22 -20 -155 -31 -295
-11 -140 -38 -482 -60 -760 -22 -278 -58 -734 -80 -1015 -22 -280 -51 -656
-65 -835 -13 -179 -40 -521 -59 -760 -65 -814 -78 -995 -78 -1075 1 -362 392
-621 763 -506 127 40 257 146 317 259 52 98 61 149 87 491 24 309 58 751 160
2041 24 311 49 630 55 710 6 80 31 395 55 700 64 813 68 875 62 953 -25 330
-384 566 -726 477z"/>
</g>
</svg>
